<?xml version="1.0" encoding="utf-8"?>
<!-- Generator: Adobe Illustrator 16.0.0, SVG Export Plug-In . SVG Version: 6.00 Build 0)  -->
<!DOCTYPE svg PUBLIC "-//W3C//DTD SVG 1.1//EN" "http://www.w3.org/Graphics/SVG/1.1/DTD/svg11.dtd">
<svg version="1.1" id="Layer_1" xmlns="http://www.w3.org/2000/svg" xmlns:xlink="http://www.w3.org/1999/xlink" x="0px" y="0px"
	 width="116.801px" height="91.77px" viewBox="0 0 116.801 91.77" enable-background="new 0 0 116.801 91.77" xml:space="preserve">
<g>
	<path fill="#FFFFFF" d="M11.211,28.289c1.477,1.043,5.93,4.137,13.359,9.285c7.434,5.152,13.125,9.118,17.078,11.895
		c0.434,0.305,1.36,0.969,2.77,1.988c1.414,1.023,2.586,1.848,3.52,2.477c0.933,0.633,2.062,1.336,3.39,2.121
		c1.324,0.781,2.574,1.367,3.746,1.758c1.176,0.391,2.262,0.586,3.262,0.586h0.129c1,0,2.086-0.195,3.262-0.586
		c1.172-0.391,2.422-0.98,3.746-1.758c1.324-0.785,2.453-1.488,3.391-2.121c0.934-0.629,2.105-1.453,3.516-2.477
		c1.414-1.02,2.34-1.684,2.773-1.988c3.996-2.781,14.164-9.84,30.504-21.184c3.172-2.215,5.82-4.887,7.949-8.016
		s3.195-6.406,3.195-9.84c0-2.867-1.035-5.324-3.098-7.367S109.195,0,106.371,0H10.43C7.082,0,4.508,1.129,2.703,3.39
		C0.902,5.648,0,8.472,0,11.863c0,2.738,1.195,5.703,3.586,8.899C5.973,23.953,8.516,26.465,11.211,28.289L11.211,28.289z
		 M11.211,28.289"/>
	<path fill="#FFFFFF" d="M110.281,35.262c-14.25,9.644-25.07,17.14-32.457,22.484c-2.477,1.828-4.488,3.25-6.031,4.27
		c-1.539,1.023-3.594,2.066-6.156,3.129c-2.566,1.066-4.953,1.598-7.172,1.598h-0.129c-2.219,0-4.609-0.531-7.172-1.598
		c-2.562-1.063-4.617-2.105-6.16-3.129c-1.539-1.02-3.551-2.441-6.027-4.27c-5.868-4.301-16.665-11.797-32.395-22.484
		C4.105,33.609,1.91,31.719,0,29.59v51.75c0,2.871,1.02,5.324,3.062,7.367c2.043,2.043,4.5,3.063,7.368,3.063h95.941
		c2.867,0,5.324-1.02,7.367-3.063s3.063-4.496,3.063-7.367V29.59C114.93,31.676,112.758,33.566,110.281,35.262L110.281,35.262z
		 M110.281,35.262"/>
</g>
</svg>
