<?xml version="1.0" encoding="utf-8"?>
<!-- Generator: Adobe Illustrator 16.0.0, SVG Export Plug-In . SVG Version: 6.00 Build 0)  -->
<!DOCTYPE svg PUBLIC "-//W3C//DTD SVG 1.1//EN" "http://www.w3.org/Graphics/SVG/1.1/DTD/svg11.dtd">
<svg version="1.1" id="Layer_1" xmlns="http://www.w3.org/2000/svg" xmlns:xlink="http://www.w3.org/1999/xlink" x="0px" y="0px"
	 width="462.96px" height="463px" viewBox="0 0 462.96 463" enable-background="new 0 0 462.96 463" xml:space="preserve">
<g>
	<g>
		<defs>
			<rect id="SVGID_1_" width="462.96" height="463"/>
		</defs>
		<clipPath id="SVGID_2_">
			<use xlink:href="#SVGID_1_"  overflow="visible"/>
		</clipPath>
		<path clip-path="url(#SVGID_2_)" fill="#FFFFFF" d="M462.266,364.754c0.977,7.504-1.309,14.035-6.855,19.582l-65.117,64.625
			c-2.938,3.266-6.773,6.039-11.504,8.324c-4.734,2.285-9.387,3.754-13.953,4.406c-0.328,0-1.309,0.082-2.941,0.246
			c-1.629,0.164-3.75,0.246-6.363,0.246c-6.199,0-16.238-1.063-30.109-3.184c-13.875-2.121-30.848-7.344-50.918-15.668
			c-20.074-8.324-42.84-20.809-68.301-37.453c-25.457-16.645-52.551-39.496-81.273-68.543
			c-22.848-22.523-41.778-44.066-56.793-64.629c-15.016-20.563-27.09-39.574-36.231-57.039
			c-9.14-17.461-15.996-33.293-20.562-47.493c-4.571-14.195-7.672-26.437-9.305-36.718c-1.633-10.282-2.285-18.36-1.957-24.235
			c0.324-5.875,0.488-9.14,0.488-9.793c0.653-4.57,2.121-9.218,4.407-13.953c2.285-4.734,5.058-8.566,8.324-11.504L78.418,6.855
			C82.988,2.285,88.211,0,94.086,0c4.242,0,7.996,1.222,11.258,3.671c3.265,2.45,6.039,5.469,8.324,9.059l52.387,99.387
			c2.937,5.222,3.754,10.937,2.449,17.137c-1.305,6.203-4.078,11.425-8.324,15.667l-23.989,23.989
			c-0.652,0.656-1.226,1.715-1.714,3.183c-0.489,1.469-0.735,2.696-0.735,3.672c1.305,6.856,4.242,14.688,8.813,23.5
			c3.918,7.836,9.957,17.383,18.117,28.645c8.16,11.258,19.746,24.234,34.762,38.922c14.687,15.016,27.742,26.684,39.167,35.008
			c11.422,8.32,20.969,14.441,28.641,18.359c7.668,3.914,13.547,6.281,17.625,7.098l6.117,1.223c0.652,0,1.715-0.246,3.184-0.734
			s2.531-1.059,3.184-1.715l27.906-28.395c5.879-5.223,12.73-7.836,20.563-7.836c5.551,0,9.957,0.98,13.219,2.938h0.492
			l94.492,55.816C456.879,352.84,460.957,358.223,462.266,364.754L462.266,364.754z M462.266,364.754"/>
	</g>
</g>
</svg>
